<svg width="72" height="72" viewBox="0 0 72 72" fill="none" xmlns="http://www.w3.org/2000/svg">
<path d="M69.0871 55.05L59.6763 45.6V27.6C59.6763 27.15 59.527 26.7 59.0788 26.4C58.7801 26.1 58.1826 25.95 57.7344 26.1L51.0124 27.9C52.5062 25.05 53.2531 21.9 53.2531 18.6C53.4025 8.4 45.6349 0 36.2241 0C26.8133 0 18.8963 8.4 18.8963 18.75C18.8963 22.05 19.6432 25.2 21.1369 28.05C20.0913 27.75 19.0456 27.45 17.8506 27.15C16.6556 26.85 15.61 26.55 14.2656 26.25C13.8174 26.1 13.3693 26.25 12.9212 26.55C12.6224 26.85 12.3237 27.3 12.3237 27.75V45.75L2.91286 55.2C-0.970954 59.1 -0.970954 65.4 2.91286 69.15C4.85477 71.1 7.39419 72 9.93361 72C12.473 72 15.0124 71.1 16.9544 69.15L21.4357 64.65C27.2614 66.3 31.1452 67.95 35.029 71.55C35.7759 72.15 36.3734 72 36.971 71.55C40.8548 67.8 44.7386 66.15 50.5643 64.65L55.0456 69.15C56.9876 71.1 59.527 72 62.0664 72C64.6058 72 67.1452 71.1 69.0871 69.15C72.8216 65.25 72.8216 58.95 69.0871 55.05ZM36.2241 3C42.6473 3 48.1743 7.8 49.8174 14.25C44.4398 11.4 40.7054 7.2 40.7054 7.2C40.4066 6.9 39.9585 6.75 39.5104 6.75C39.0622 6.75 38.6141 7.05 38.3154 7.35C34.2822 13.35 25.6183 15.15 22.1826 15.75C23.527 8.4 29.2033 3 36.2241 3ZM20.0913 61.95L15.0124 67.05C12.3237 69.75 7.9917 69.75 5.3029 67.05C2.61411 64.35 2.61411 60 5.3029 57.3L14.7137 47.85C15.3112 47.4 15.9087 47.7 15.61 48.6L8.88797 55.35C8.29046 55.95 8.29046 56.85 8.88797 57.45C9.48548 58.05 10.3817 58.05 10.9793 57.45L17.7012 50.7C17.7012 50.7 17.8506 50.7 17.8506 50.55C18.4481 50.4 18.7469 50.7 18.5975 51.3L11.7261 58.2C11.1286 58.8 11.1286 59.7 11.7261 60.3C12.3237 60.9 13.0705 60.9 13.8174 60.3L20.5394 53.55C21.2863 53.25 21.7344 53.55 21.4357 54.45L14.7137 61.2C14.1162 61.8 14.1162 62.7 14.7137 63.3C15.4606 63.9 16.2075 63.9 16.805 63.3L23.527 56.55C23.9751 56.1 25.0207 56.7 24.4232 57.45L20.0913 61.95ZM34.7303 67.2C31.5934 64.8 28.3071 63.45 23.9751 62.1C25.3195 60.75 26.5145 59.55 27.2614 58.5C27.2614 58.5 27.2614 58.35 27.4108 58.35C28.3071 55.65 27.112 54.15 24.722 53.4C24.722 53.4 24.722 53.4 24.5726 53.4C25.1701 52.8 22.1826 49.95 21.5851 50.4V50.25C21.1369 48.75 20.2407 47.85 18.7469 47.55C18.7469 47.55 18.7469 47.55 18.5975 47.55C18.1494 45.75 17.1037 44.85 15.4606 44.55V29.55C16.0581 29.7 16.6556 29.85 17.1037 30C24.722 31.95 29.6515 33.15 34.5809 37.65L34.7303 67.2ZM36.2241 34.95C32.9378 32.1 29.5021 30.45 25.6183 29.25C23.2282 26.4 22.0332 22.65 22.0332 18.75C25.1701 18.3 34.2822 16.8 39.8091 10.5C41.751 12.3 45.6349 15.75 50.5643 17.85C50.5643 18.15 50.5643 18.45 50.5643 18.75C50.5643 22.35 49.5187 25.8 47.4274 28.65C47.278 28.8 47.278 29.1 47.1286 29.25C43.0954 30.45 39.5104 32.1 36.2241 34.95ZM37.7178 67.2V37.65C42.4979 33.15 47.5768 31.95 55.195 30C55.7925 29.85 56.2407 29.7 56.8382 29.55V44.55C55.195 45 54 45.75 53.7012 47.55C52.2075 47.85 51.1618 48.75 50.7137 50.4C49.2199 50.85 48.1743 51.6 47.7261 53.25C45.7842 53.7 44.888 54.9 44.7386 56.85C44.7386 57.75 45.1867 58.65 45.7842 59.4L48.3237 61.95C43.9917 63.45 40.8548 64.95 37.7178 67.2ZM67.1452 67.05C64.4564 69.75 60.1245 69.75 57.4357 67.05L48.0249 57.6C47.5768 56.7 48.0249 56.4 48.9212 56.7L55.6432 63.45C56.39 64.05 56.9876 64.05 57.7344 63.45C58.3319 62.85 58.3319 61.95 57.7344 61.35L51.0124 54.6C50.5643 53.7 51.1618 53.25 51.9087 53.7L58.6307 60.45C59.3776 61.05 60.1245 61.05 60.722 60.45C61.3195 59.85 61.3195 58.95 60.722 58.35L54 51.6C53.5519 50.85 54.1494 50.25 54.8963 50.7L61.6183 57.45C62.2158 58.05 63.112 58.05 63.7095 57.45C64.3071 56.85 64.3071 55.95 63.7095 55.35L56.9876 48.6C56.39 47.85 57.2863 47.25 57.8838 47.7L67.2946 57.15C69.6846 59.85 69.6846 64.35 67.1452 67.05Z" fill="#F68825"/>
</svg>
