<svg width="15" height="20" viewBox="0 0 15 20" fill="none" xmlns="http://www.w3.org/2000/svg">
<g clip-path="url(#clip0_403_11)">
<path fill-rule="evenodd" clip-rule="evenodd" d="M1.8 7.73345H2.37778V5.00012C2.37778 0.600119 7.73333 -1.68877 10.8889 1.46679C11.8 2.3779 12.3556 3.62234 12.3556 5.00012V7.73345H12.9333C13.7333 7.73345 14.2 8.26679 14.2 8.26679C14.5333 8.60012 14.7333 9.04456 14.7333 9.53345V18.2001C14.7333 19.2001 13.9333 20.0001 12.9333 20.0001H1.8C0.822222 20.0001 0 19.1779 0 18.2001V9.53345C0 8.53345 0.8 7.73345 1.8 7.73345ZM6.68889 12.7557V15.0001C6.68889 15.889 8.04445 15.889 8.04445 15.0001V12.7557C8.04445 11.8446 6.68889 11.8446 6.68889 12.7557ZM3.73333 7.73345H10.9778V5.00012C10.9778 1.82234 7.11111 0.133452 4.8 2.44456C4.13333 3.11123 3.73333 4.00012 3.73333 5.00012V7.73345ZM12.9333 9.11123H1.8C1.55556 9.11123 1.35556 9.31123 1.35556 9.55567V18.2223C1.35556 18.4668 1.55556 18.6668 1.8 18.6668H12.9333C13.1778 18.6668 13.3778 18.4668 13.3778 18.2223V9.55567C13.3778 9.44456 13.3333 9.33345 13.2444 9.24456C13.1556 9.15567 13.0444 9.11123 12.9333 9.11123Z" fill="black"/>
</g>
<defs>
<clipPath id="clip0_403_11">
<rect width="14.7333" height="20" fill="white"/>
</clipPath>
</defs>
</svg>
