<svg width="20" height="20" viewBox="0 0 20 20" fill="none" xmlns="http://www.w3.org/2000/svg">
<g clip-path="url(#clip0_403_13)">
<path d="M19.797 18.8494L14.7886 13.841C17.8004 10.3215 17.3605 5.00848 13.841 1.99663C10.3216 -1.01521 5.00854 -0.575278 1.99669 2.94418C-1.01515 6.46364 -0.575217 11.7767 2.94424 14.7885C6.09145 17.4619 10.6938 17.4619 13.841 14.7885L18.8495 19.797C19.1202 20.0677 19.5601 20.0339 19.797 19.797C20.0339 19.5262 20.0339 19.0863 19.797 18.8494ZM8.42647 15.4653C4.53477 15.4653 1.38756 12.3181 1.38756 8.42641C1.38756 4.5347 4.53477 1.3875 8.42647 1.3875C12.3182 1.3875 15.4654 4.5347 15.4654 8.42641C15.4654 12.3181 12.3182 15.4653 8.42647 15.4653Z" fill="black"/>
</g>
<defs>
<clipPath id="clip0_403_13">
<rect width="20" height="20" fill="white"/>
</clipPath>
</defs>
</svg>
