<svg width="62" height="72" viewBox="0 0 62 72" fill="none" xmlns="http://www.w3.org/2000/svg">
<g clip-path="url(#clip0_445_120)">
<path fill-rule="evenodd" clip-rule="evenodd" d="M35.3684 24.84C35.3684 20.52 38.9774 16.92 43.3083 16.92C47.6391 16.92 51.2481 20.52 51.2481 24.84C51.2481 29.16 47.6391 32.76 43.3083 32.76C38.9774 32.76 35.3684 29.16 35.3684 24.84ZM43.3083 21.96C41.5037 21.96 40.0601 23.4 40.0601 25.2C40.0601 27 41.5037 28.44 43.3083 28.44C45.1128 28.44 46.5564 27 46.5564 25.2C46.5564 23.4 45.1128 21.96 43.3083 21.96Z" fill="white"/>
<path fill-rule="evenodd" clip-rule="evenodd" d="M57.3834 70.92C58.1052 72 59.5488 72 60.6315 71.28C61.7142 70.56 61.7142 69.12 60.9924 68.04L48.3608 51.48L57.3834 42.48C58.827 41.04 59.9097 38.88 60.2706 36.36L61.7142 16.92C62.0751 11.16 57.3834 6.12 51.248 6.48L31.7593 8.28C29.5939 8.64 27.4285 9.36 25.9849 11.16L20.9323 16.2L9.02248 1.08C8.30067 -7.99089e-07 6.85706 -0.360001 5.77436 0.359999C4.69165 1.44 4.69165 2.88 5.41345 3.6L57.3834 70.92ZM23.8195 19.8L45.4736 47.88L54.1353 39.24C54.8571 38.52 55.5789 37.44 55.5789 36.36L57.0225 16.92C57.3834 14.04 54.8571 11.52 51.6089 11.52L32.1202 12.96C31.0375 12.96 29.9548 13.68 29.233 14.4L23.8195 19.8Z" fill="white"/>
<path d="M41.1428 58.68C41.5037 58.32 41.5037 57.96 41.1428 57.6L38.9774 55.08C38.6165 54.72 38.2556 54.72 37.8947 55.08L30.6767 62.28C28.8721 64.08 25.624 64.08 23.8195 62.28L5.7744 44.28C3.96989 42.48 3.96989 39.24 5.7744 37.44L16.2406 27C16.6015 26.64 16.6015 26.28 16.2406 25.92L14.797 23.4C14.4361 23.04 14.0752 23.04 13.7143 23.4L2.88719 34.2C-0.721836 37.8 -0.721836 43.92 2.88719 47.52L20.9323 65.52C24.5413 69.12 30.6767 69.12 34.2857 65.52L41.1428 58.68Z" fill="white"/>
</g>
<defs>
<clipPath id="clip0_445_120">
<rect width="61.7143" height="72" fill="white"/>
</clipPath>
</defs>
</svg>
