<svg width="72" height="72" viewBox="0 0 72 72" fill="none" xmlns="http://www.w3.org/2000/svg">
<path d="M65.6719 1.54688H6.32812C2.8388 1.54688 0 4.38567 0 7.875V52.875C0 56.3643 2.8388 59.2031 6.32812 59.2031H25.4066C25.1882 61.8147 24.1532 64.2572 22.4252 66.2344H19.125C17.9601 66.2344 17.0156 67.1788 17.0156 68.3438C17.0156 69.5087 17.9601 70.4531 19.125 70.4531H52.875C54.0399 70.4531 54.9844 69.5087 54.9844 68.3438C54.9844 67.1788 54.0399 66.2344 52.875 66.2344H49.5748C47.8468 64.2572 46.8118 61.8147 46.5934 59.2031H65.6719C69.1612 59.2031 72 56.3643 72 52.875V7.875C72 4.38567 69.1612 1.54688 65.6719 1.54688ZM27.5702 66.2344C28.7747 64.0925 29.4834 61.701 29.6384 59.2031H42.3617C42.5167 61.701 43.2253 64.0925 44.4299 66.2344H27.5702ZM67.7812 52.875C67.7812 54.0381 66.835 54.9844 65.6719 54.9844H63.4219V52.875C63.4219 51.7101 62.4774 50.7656 61.3125 50.7656C60.1476 50.7656 59.2031 51.7101 59.2031 52.875V54.9844H54.9844V52.875C54.9844 51.7101 54.0399 50.7656 52.875 50.7656C51.7101 50.7656 50.7656 51.7101 50.7656 52.875V54.9844H6.32812C5.16502 54.9844 4.21875 54.0381 4.21875 52.875V46.5469H67.7812V52.875ZM31.7812 21.2344L36 15.6094L40.2188 21.2344C39.0538 21.2344 38.1094 22.1788 38.1094 23.3438C38.1094 30.625 41.1591 37.4732 46.341 42.3281H25.659C30.8409 37.4732 33.8906 30.625 33.8906 23.3438C33.8906 22.1788 32.9462 21.2344 31.7812 21.2344ZM67.7812 42.3281H53.4255C47.1945 38.8185 43.1146 32.4908 42.4304 25.4531H44.4375C46.1758 25.4531 47.168 23.4688 46.125 22.0781L37.6875 10.8281C36.8438 9.70312 35.1562 9.70312 34.3125 10.8281L25.875 22.0781C24.8321 23.4688 25.8242 25.4531 27.5625 25.4531H29.5695C28.8852 32.4908 24.8054 38.8185 18.5743 42.3281H4.21875V7.875C4.21875 6.71189 5.16502 5.76562 6.32812 5.76562H65.6719C66.835 5.76562 67.7812 6.71189 67.7812 7.875V42.3281Z" fill="white"/>
<path d="M19.125 9.98438H10.6875C9.52256 9.98438 8.57812 10.9288 8.57812 12.0938C8.57812 13.2587 9.52256 14.2031 10.6875 14.2031H19.125C20.2899 14.2031 21.2344 13.2587 21.2344 12.0938C21.2344 10.9288 20.2899 9.98438 19.125 9.98438Z" fill="white"/>
<path d="M19.125 18.4219H10.6875C9.52256 18.4219 8.57812 19.3663 8.57812 20.5312C8.57812 21.6962 9.52256 22.6406 10.6875 22.6406H19.125C20.2899 22.6406 21.2344 21.6962 21.2344 20.5312C21.2344 19.3663 20.2899 18.4219 19.125 18.4219Z" fill="white"/>
</svg>
