<svg width="69" height="72" viewBox="0 0 69 72" fill="none" xmlns="http://www.w3.org/2000/svg">
<g clip-path="url(#clip0_445_145)">
<path d="M30.9231 15.2308C30.9231 6.92308 24 0 15.2308 0C6.92308 0 0 6.92308 0 15.2308C0 23.5385 6.92308 30.4615 15.2308 30.4615C24 30.9231 30.9231 24 30.9231 15.2308ZM27.2308 15.2308C27.2308 21.6923 22.1538 27.2308 15.2308 27.2308C8.76923 27.2308 3.23077 22.1538 3.23077 15.2308C3.23077 8.76923 8.30769 3.23077 15.2308 3.23077C21.6923 3.69231 27.2308 8.76923 27.2308 15.2308Z" fill="white"/>
<path d="M45.2308 42H32.7692C31.8462 42 30.9231 42.9231 30.9231 43.8462V70.1538C30.9231 70.6154 30.9231 71.0769 31.3846 71.5385C31.8462 72 32.3077 72 32.7692 72H44.7692C45.2308 72 45.6923 72 46.1539 71.5385C46.6154 71.0769 46.6154 70.6154 46.6154 70.1538V43.8462C47.0769 42.9231 46.1539 42 45.2308 42ZM43.3846 45.6923V68.3077H34.6154V45.6923H43.3846Z" fill="white"/>
<path d="M16.1539 13.3846H14.3078C14.3078 13.3846 13.8462 13.3846 13.8462 12.4615C13.8462 12 14.3078 11.5385 14.3078 11.5385H17.5386C18.4616 11.5385 19.3847 10.6154 19.3847 9.69231C19.3847 8.76923 18.4616 7.84615 17.5386 7.84615C17.5386 6.92308 16.6155 6 15.6924 6C15.2309 6 14.7693 6 14.3078 6.46154C13.8462 6.92308 13.8462 7.38462 13.8462 7.84615V8.76923C12.0001 8.76923 10.6155 10.6154 10.6155 12.9231C10.6155 15.2308 12.4616 17.0769 14.7693 17.0769H16.6155C16.6155 17.0769 17.077 17.0769 17.077 18C16.6155 18.4615 16.1539 18.4615 16.1539 18.4615H12.9232C12.0001 18.4615 11.077 19.3846 11.077 20.3077C11.077 20.7692 11.077 21.2308 11.5386 21.6923C12.0001 22.1538 12.4616 22.1538 12.9232 22.1538H13.8462V23.0769C13.8462 23.5385 13.8462 24 14.3078 24.4615C14.7693 24.9231 15.2309 24.9231 15.6924 24.9231C16.6155 24.9231 17.5386 24 17.5386 23.0769V22.1538C19.3847 21.6923 20.3078 19.8462 20.3078 18C20.3078 15.6923 18.4616 13.3846 16.1539 13.3846Z" fill="white"/>
<path d="M53.5385 28.6154C54.9231 29.0769 55.8462 28.6154 56.3078 27.2308L58.6154 16.6154C58.6154 15.6923 58.1539 14.7692 57.2308 14.3077L46.6154 11.0769H46.1539C45.2308 11.0769 44.7693 11.5385 44.7693 12.4615C44.7693 12.9231 44.7693 13.3846 44.7693 13.8461C44.7693 14.3077 45.2308 14.7692 45.6924 14.7692L52.1539 16.6154L14.3078 38.7692C13.3847 39.2308 12.9231 40.1538 13.3847 41.0769C13.8462 42 14.3078 42 15.2308 42C15.6924 42 15.6924 42 16.1539 41.5385L54.0001 19.3846L52.6154 26.3077C52.1539 27.2308 52.6154 28.1538 53.5385 28.6154Z" fill="white"/>
<path d="M67.8462 33.6923C67.3847 33.2308 66.9232 33.2308 66.4616 33.2308H54.4616C54.0001 33.2308 53.5386 33.2308 53.077 33.6923C52.6155 34.1539 52.6155 34.6154 52.6155 35.0769V70.1539C52.6155 70.6154 52.6155 71.0769 53.077 71.5385C53.5386 72 54.0001 72 54.4616 72H66.4616C67.3847 72 68.3078 71.0769 68.3078 70.1539V35.0769C68.3078 34.6154 68.3078 34.1539 67.8462 33.6923ZM65.077 36.9231V68.7692H56.3078V36.9231H65.077Z" fill="white"/>
<path d="M25.3846 50.3077H12.9231C12.4615 50.3077 12 50.3077 11.5384 50.7692C11.0769 51.2308 11.0769 51.6923 11.0769 52.1538V70.1538C11.0769 70.6154 11.0769 71.0769 11.5384 71.5385C12 72 12.4615 72 12.9231 72H24.9231C25.8461 72 26.7692 71.0769 26.7692 70.1538V52.1538C26.7692 51.2308 26.3077 50.3077 25.3846 50.3077ZM23.5384 54V68.3077H14.7692V54H23.5384Z" fill="white"/>
</g>
<defs>
<clipPath id="clip0_445_145">
<rect width="68.3077" height="72" fill="white"/>
</clipPath>
</defs>
</svg>
