<svg width="376" height="63" viewBox="0 0 376 63" fill="none" xmlns="http://www.w3.org/2000/svg">
<path d="M96.168 8.864C98.328 8.864 100.112 9.432 101.52 10.568C102.944 11.704 103.864 13.24 104.28 15.176H99.936C99.616 14.392 99.12 13.776 98.448 13.328C97.792 12.88 97.008 12.656 96.096 12.656C94.896 12.656 93.928 13.096 93.192 13.976C92.456 14.856 92.088 16.032 92.088 17.504C92.088 18.976 92.456 20.152 93.192 21.032C93.928 21.896 94.896 22.328 96.096 22.328C97.008 22.328 97.792 22.104 98.448 21.656C99.12 21.208 99.616 20.6 99.936 19.832H104.28C103.864 21.752 102.944 23.288 101.52 24.44C100.112 25.576 98.328 26.144 96.168 26.144C94.52 26.144 93.072 25.784 91.824 25.064C90.576 24.328 89.608 23.304 88.92 21.992C88.248 20.68 87.912 19.184 87.912 17.504C87.912 15.824 88.248 14.328 88.92 13.016C89.608 11.704 90.576 10.688 91.824 9.968C93.072 9.232 94.52 8.864 96.168 8.864ZM114.044 12.44C115.372 12.44 116.556 12.72 117.596 13.28C118.652 13.824 119.476 14.616 120.068 15.656C120.676 16.696 120.98 17.912 120.98 19.304C120.98 20.696 120.676 21.912 120.068 22.952C119.476 23.992 118.652 24.792 117.596 25.352C116.556 25.896 115.372 26.168 114.044 26.168C112.716 26.168 111.524 25.896 110.468 25.352C109.412 24.792 108.58 23.992 107.972 22.952C107.38 21.912 107.084 20.696 107.084 19.304C107.084 17.912 107.38 16.696 107.972 15.656C108.58 14.616 109.412 13.824 110.468 13.28C111.524 12.72 112.716 12.44 114.044 12.44ZM114.044 15.992C113.26 15.992 112.596 16.28 112.052 16.856C111.524 17.416 111.26 18.232 111.26 19.304C111.26 20.376 111.524 21.192 112.052 21.752C112.596 22.312 113.26 22.592 114.044 22.592C114.828 22.592 115.484 22.312 116.012 21.752C116.54 21.192 116.804 20.376 116.804 19.304C116.804 18.232 116.54 17.416 116.012 16.856C115.484 16.28 114.828 15.992 114.044 15.992ZM141.66 12.464C143.308 12.464 144.604 12.976 145.548 14C146.492 15.008 146.964 16.416 146.964 18.224V26H142.884V18.704C142.884 17.856 142.652 17.2 142.188 16.736C141.74 16.256 141.124 16.016 140.34 16.016C139.524 16.016 138.876 16.272 138.396 16.784C137.932 17.28 137.7 17.984 137.7 18.896V26H133.596V18.704C133.596 17.856 133.372 17.2 132.924 16.736C132.476 16.256 131.86 16.016 131.076 16.016C130.26 16.016 129.612 16.264 129.132 16.76C128.652 17.256 128.412 17.968 128.412 18.896V26H124.308V12.608H128.412V14.888C128.764 14.136 129.3 13.544 130.02 13.112C130.756 12.68 131.612 12.464 132.588 12.464C133.612 12.464 134.516 12.704 135.3 13.184C136.084 13.648 136.676 14.32 137.076 15.2C137.54 14.368 138.172 13.704 138.972 13.208C139.788 12.712 140.684 12.464 141.66 12.464ZM168.243 12.464C169.891 12.464 171.187 12.976 172.131 14C173.075 15.008 173.547 16.416 173.547 18.224V26H169.467V18.704C169.467 17.856 169.235 17.2 168.771 16.736C168.323 16.256 167.707 16.016 166.923 16.016C166.107 16.016 165.459 16.272 164.979 16.784C164.515 17.28 164.283 17.984 164.283 18.896V26H160.179V18.704C160.179 17.856 159.955 17.2 159.507 16.736C159.059 16.256 158.443 16.016 157.659 16.016C156.843 16.016 156.195 16.264 155.715 16.76C155.235 17.256 154.995 17.968 154.995 18.896V26H150.891V12.608H154.995V14.888C155.347 14.136 155.883 13.544 156.603 13.112C157.339 12.68 158.195 12.464 159.171 12.464C160.195 12.464 161.099 12.704 161.883 13.184C162.667 13.648 163.259 14.32 163.659 15.2C164.123 14.368 164.755 13.704 165.555 13.208C166.371 12.712 167.267 12.464 168.243 12.464ZM190.794 12.608V26H186.666V23.576C186.282 24.36 185.706 24.984 184.938 25.448C184.186 25.912 183.306 26.144 182.298 26.144C180.762 26.144 179.538 25.632 178.626 24.608C177.73 23.584 177.282 22.176 177.282 20.384V12.608H181.362V19.88C181.362 20.792 181.594 21.504 182.058 22.016C182.538 22.512 183.178 22.76 183.978 22.76C184.81 22.76 185.466 22.496 185.946 21.968C186.426 21.44 186.666 20.688 186.666 19.712V12.608H190.794ZM203.318 12.464C204.854 12.464 206.07 12.976 206.966 14C207.878 15.024 208.334 16.432 208.334 18.224V26H204.23V18.704C204.23 17.808 203.99 17.112 203.51 16.616C203.046 16.104 202.422 15.848 201.638 15.848C200.806 15.848 200.142 16.112 199.646 16.64C199.166 17.168 198.926 17.92 198.926 18.896V26H194.822V12.608H198.926V15.056C199.31 14.256 199.878 13.624 200.63 13.16C201.398 12.696 202.294 12.464 203.318 12.464ZM211.857 8.84C211.857 8.216 212.081 7.704 212.529 7.304C212.977 6.888 213.569 6.68 214.305 6.68C215.041 6.68 215.633 6.888 216.081 7.304C216.529 7.704 216.753 8.216 216.753 8.84C216.753 9.448 216.529 9.96 216.081 10.376C215.633 10.776 215.041 10.976 214.305 10.976C213.569 10.976 212.977 10.776 212.529 10.376C212.081 9.96 211.857 9.448 211.857 8.84ZM216.345 12.608V26H212.241V12.608H216.345ZM227.962 22.472V26H226.114C224.546 26 223.322 25.616 222.442 24.848C221.578 24.064 221.146 22.776 221.146 20.984V16.064H219.346V12.608H221.146V9.32H225.25V12.608H227.938V16.064H225.25V21.056C225.25 21.584 225.354 21.952 225.562 22.16C225.786 22.368 226.154 22.472 226.666 22.472H227.962ZM234.565 12.608L237.781 20.816L240.781 12.608H245.317L236.965 32.384H232.453L235.597 25.496L229.981 12.608H234.565ZM262.597 26L258.925 19.592H257.989V26H253.885V9.032H260.893C262.237 9.032 263.373 9.264 264.301 9.728C265.229 10.192 265.925 10.832 266.389 11.648C266.853 12.448 267.085 13.368 267.085 14.408C267.085 15.64 266.741 16.688 266.053 17.552C265.381 18.416 264.397 19.008 263.101 19.328L267.133 26H262.597ZM257.989 16.784H260.533C261.349 16.784 261.949 16.608 262.333 16.256C262.717 15.888 262.909 15.352 262.909 14.648C262.909 13.976 262.709 13.448 262.309 13.064C261.925 12.68 261.333 12.488 260.533 12.488H257.989V16.784ZM283.063 18.944C283.063 19.28 283.023 19.648 282.943 20.048H273.655C273.703 21.056 273.959 21.784 274.423 22.232C274.887 22.664 275.479 22.88 276.199 22.88C276.807 22.88 277.311 22.728 277.711 22.424C278.111 22.12 278.375 21.728 278.503 21.248H282.847C282.671 22.192 282.287 23.04 281.695 23.792C281.103 24.528 280.351 25.112 279.439 25.544C278.527 25.96 277.511 26.168 276.391 26.168C275.079 26.168 273.911 25.896 272.887 25.352C271.879 24.792 271.087 23.992 270.511 22.952C269.935 21.912 269.647 20.696 269.647 19.304C269.647 17.896 269.927 16.68 270.487 15.656C271.063 14.616 271.863 13.824 272.887 13.28C273.911 12.72 275.079 12.44 276.391 12.44C277.719 12.44 278.887 12.712 279.895 13.256C280.903 13.8 281.679 14.568 282.223 15.56C282.783 16.536 283.063 17.664 283.063 18.944ZM278.911 18.32C278.927 17.44 278.687 16.784 278.191 16.352C277.711 15.904 277.111 15.68 276.391 15.68C275.639 15.68 275.015 15.904 274.519 16.352C274.023 16.8 273.743 17.456 273.679 18.32H278.911ZM291.274 12.44C292.97 12.44 294.322 12.864 295.33 13.712C296.354 14.56 296.994 15.68 297.25 17.072H293.41C293.298 16.528 293.042 16.104 292.642 15.8C292.258 15.48 291.77 15.32 291.178 15.32C290.714 15.32 290.362 15.424 290.122 15.632C289.882 15.824 289.762 16.104 289.762 16.472C289.762 16.888 289.978 17.2 290.41 17.408C290.858 17.616 291.554 17.824 292.498 18.032C293.522 18.272 294.362 18.52 295.018 18.776C295.674 19.016 296.242 19.416 296.722 19.976C297.202 20.536 297.442 21.288 297.442 22.232C297.442 23 297.234 23.68 296.818 24.272C296.402 24.864 295.802 25.328 295.018 25.664C294.234 26 293.306 26.168 292.234 26.168C290.426 26.168 288.978 25.768 287.89 24.968C286.802 24.168 286.138 23.024 285.898 21.536H289.858C289.922 22.112 290.162 22.552 290.578 22.856C291.01 23.16 291.562 23.312 292.234 23.312C292.698 23.312 293.05 23.208 293.29 23C293.53 22.776 293.65 22.488 293.65 22.136C293.65 21.672 293.426 21.344 292.978 21.152C292.546 20.944 291.834 20.728 290.842 20.504C289.85 20.296 289.034 20.072 288.394 19.832C287.754 19.592 287.202 19.208 286.738 18.68C286.274 18.136 286.042 17.4 286.042 16.472C286.042 15.272 286.498 14.304 287.41 13.568C288.322 12.816 289.61 12.44 291.274 12.44ZM307.178 12.44C308.506 12.44 309.69 12.72 310.73 13.28C311.786 13.824 312.61 14.616 313.202 15.656C313.81 16.696 314.114 17.912 314.114 19.304C314.114 20.696 313.81 21.912 313.202 22.952C312.61 23.992 311.786 24.792 310.73 25.352C309.69 25.896 308.506 26.168 307.178 26.168C305.85 26.168 304.658 25.896 303.602 25.352C302.546 24.792 301.714 23.992 301.106 22.952C300.514 21.912 300.218 20.696 300.218 19.304C300.218 17.912 300.514 16.696 301.106 15.656C301.714 14.616 302.546 13.824 303.602 13.28C304.658 12.72 305.85 12.44 307.178 12.44ZM307.178 15.992C306.394 15.992 305.73 16.28 305.186 16.856C304.658 17.416 304.394 18.232 304.394 19.304C304.394 20.376 304.658 21.192 305.186 21.752C305.73 22.312 306.394 22.592 307.178 22.592C307.962 22.592 308.618 22.312 309.146 21.752C309.674 21.192 309.938 20.376 309.938 19.304C309.938 18.232 309.674 17.416 309.146 16.856C308.618 16.28 307.962 15.992 307.178 15.992ZM330.763 12.608V26H326.635V23.576C326.251 24.36 325.675 24.984 324.907 25.448C324.155 25.912 323.275 26.144 322.267 26.144C320.731 26.144 319.507 25.632 318.595 24.608C317.699 23.584 317.251 22.176 317.251 20.384V12.608H321.331V19.88C321.331 20.792 321.563 21.504 322.027 22.016C322.507 22.512 323.147 22.76 323.947 22.76C324.779 22.76 325.435 22.496 325.915 21.968C326.395 21.44 326.635 20.688 326.635 19.712V12.608H330.763ZM338.895 15.128C339.407 14.312 340.063 13.664 340.863 13.184C341.679 12.704 342.559 12.464 343.503 12.464V16.856H342.327C341.239 16.856 340.391 17.088 339.783 17.552C339.191 18.016 338.895 18.8 338.895 19.904V26H334.791V12.608H338.895V15.128ZM352.469 12.44C354.197 12.44 355.645 12.92 356.813 13.88C357.981 14.824 358.717 16.128 359.021 17.792H354.677C354.549 17.216 354.285 16.768 353.885 16.448C353.485 16.128 352.981 15.968 352.373 15.968C351.653 15.968 351.061 16.256 350.597 16.832C350.133 17.392 349.901 18.216 349.901 19.304C349.901 20.392 350.133 21.224 350.597 21.8C351.061 22.36 351.653 22.64 352.373 22.64C352.981 22.64 353.485 22.48 353.885 22.16C354.285 21.84 354.549 21.392 354.677 20.816H359.021C358.717 22.48 357.981 23.792 356.813 24.752C355.645 25.696 354.197 26.168 352.469 26.168C351.157 26.168 349.989 25.896 348.965 25.352C347.957 24.792 347.165 23.992 346.589 22.952C346.013 21.912 345.725 20.696 345.725 19.304C345.725 17.896 346.005 16.68 346.565 15.656C347.141 14.616 347.941 13.824 348.965 13.28C349.989 12.72 351.157 12.44 352.469 12.44ZM375.083 18.944C375.083 19.28 375.043 19.648 374.963 20.048H365.675C365.723 21.056 365.979 21.784 366.443 22.232C366.907 22.664 367.499 22.88 368.219 22.88C368.827 22.88 369.331 22.728 369.731 22.424C370.131 22.12 370.395 21.728 370.523 21.248H374.867C374.691 22.192 374.307 23.04 373.715 23.792C373.123 24.528 372.371 25.112 371.459 25.544C370.547 25.96 369.531 26.168 368.411 26.168C367.099 26.168 365.931 25.896 364.907 25.352C363.899 24.792 363.107 23.992 362.531 22.952C361.955 21.912 361.667 20.696 361.667 19.304C361.667 17.896 361.947 16.68 362.507 15.656C363.083 14.616 363.883 13.824 364.907 13.28C365.931 12.72 367.099 12.44 368.411 12.44C369.739 12.44 370.907 12.712 371.915 13.256C372.923 13.8 373.699 14.568 374.243 15.56C374.803 16.536 375.083 17.664 375.083 18.944ZM370.931 18.32C370.947 17.44 370.707 16.784 370.211 16.352C369.731 15.904 369.131 15.68 368.411 15.68C367.659 15.68 367.035 15.904 366.539 16.352C366.043 16.8 365.763 17.456 365.699 18.32H370.931Z" fill="white"/>
<path d="M93.144 37.592C94.5307 37.592 95.6827 37.944 96.6 38.648C97.5173 39.352 98.136 40.3067 98.456 41.512H96.52C96.2533 40.8293 95.8267 40.2907 95.24 39.896C94.664 39.4907 93.9547 39.288 93.112 39.288C92.44 39.288 91.8373 39.4533 91.304 39.784C90.7813 40.1147 90.3653 40.5893 90.056 41.208C89.7573 41.816 89.608 42.5307 89.608 43.352C89.608 44.1627 89.7573 44.8773 90.056 45.496C90.3653 46.104 90.7813 46.5733 91.304 46.904C91.8373 47.2347 92.44 47.4 93.112 47.4C93.9547 47.4 94.664 47.2027 95.24 46.808C95.8267 46.4027 96.2533 45.864 96.52 45.192H98.456C98.136 46.3973 97.5173 47.352 96.6 48.056C95.6827 48.7493 94.5307 49.096 93.144 49.096C92.0773 49.096 91.1333 48.856 90.312 48.376C89.4907 47.8853 88.856 47.208 88.408 46.344C87.96 45.4693 87.736 44.472 87.736 43.352C87.736 42.232 87.96 41.24 88.408 40.376C88.856 39.5013 89.4907 38.8187 90.312 38.328C91.1333 37.8373 92.0773 37.592 93.144 37.592ZM102.9 41.912C103.199 41.336 103.625 40.8827 104.18 40.552C104.735 40.2107 105.375 40.04 106.1 40.04V42.024H105.556C104.756 42.024 104.111 42.2213 103.62 42.616C103.14 43 102.9 43.64 102.9 44.536V49H101.076V40.184H102.9V41.912ZM116.459 44.168C116.459 44.4667 116.437 44.728 116.395 44.952H109.611C109.643 45.8587 109.893 46.5307 110.363 46.968C110.832 47.4053 111.413 47.624 112.107 47.624C112.715 47.624 113.227 47.4693 113.643 47.16C114.069 46.8507 114.331 46.44 114.427 45.928H116.379C116.261 46.5467 116.016 47.096 115.643 47.576C115.269 48.056 114.784 48.4347 114.187 48.712C113.589 48.9787 112.923 49.112 112.187 49.112C111.333 49.112 110.576 48.9307 109.915 48.568C109.264 48.2053 108.752 47.6827 108.379 47C108.005 46.3173 107.819 45.512 107.819 44.584C107.819 43.6667 108.005 42.8667 108.379 42.184C108.752 41.5013 109.264 40.9787 109.915 40.616C110.576 40.2533 111.333 40.072 112.187 40.072C113.051 40.072 113.803 40.2533 114.443 40.616C115.093 40.968 115.589 41.4587 115.931 42.088C116.283 42.7067 116.459 43.4 116.459 44.168ZM114.619 44.12C114.64 43.544 114.539 43.064 114.315 42.68C114.101 42.2853 113.803 41.9973 113.419 41.816C113.045 41.624 112.635 41.528 112.187 41.528C111.472 41.528 110.875 41.7467 110.395 42.184C109.915 42.6213 109.653 43.2667 109.611 44.12H114.619ZM122.556 40.072C123.356 40.072 124.038 40.2693 124.604 40.664C125.169 41.0587 125.564 41.5813 125.788 42.232V37.16H127.628V49H125.788V46.952C125.564 47.6027 125.169 48.1253 124.604 48.52C124.038 48.9147 123.356 49.112 122.556 49.112C121.788 49.112 121.1 48.9307 120.492 48.568C119.894 48.2053 119.425 47.6827 119.084 47C118.742 46.3173 118.572 45.512 118.572 44.584C118.572 43.6667 118.742 42.8667 119.084 42.184C119.425 41.5013 119.894 40.9787 120.492 40.616C121.1 40.2533 121.788 40.072 122.556 40.072ZM123.116 41.672C122.305 41.672 121.654 41.9333 121.164 42.456C120.684 42.968 120.444 43.6773 120.444 44.584C120.444 45.4907 120.684 46.2053 121.164 46.728C121.654 47.24 122.305 47.496 123.116 47.496C123.628 47.496 124.086 47.3787 124.492 47.144C124.897 46.8987 125.217 46.5573 125.452 46.12C125.686 45.6827 125.804 45.1707 125.804 44.584C125.804 44.008 125.686 43.5013 125.452 43.064C125.217 42.616 124.897 42.2747 124.492 42.04C124.086 41.7947 123.628 41.672 123.116 41.672ZM130.361 37.624C130.361 37.3147 130.467 37.0587 130.681 36.856C130.894 36.6533 131.177 36.552 131.529 36.552C131.881 36.552 132.163 36.6533 132.377 36.856C132.601 37.0587 132.713 37.3147 132.713 37.624C132.713 37.9333 132.601 38.184 132.377 38.376C132.163 38.568 131.881 38.664 131.529 38.664C131.177 38.664 130.894 38.568 130.681 38.376C130.467 38.184 130.361 37.9333 130.361 37.624ZM132.441 40.184V49H130.617V40.184H132.441ZM139.88 47.416V49H138.76C137.821 49 137.106 48.776 136.616 48.328C136.136 47.8693 135.896 47.112 135.896 46.056V41.736H134.632V40.184H135.896V37.992H137.736V40.184H139.864V41.736H137.736V46.088C137.736 46.5893 137.826 46.936 138.008 47.128C138.2 47.32 138.53 47.416 139 47.416H139.88ZM148.682 37.704V44.408C148.682 45.4107 148.901 46.1573 149.338 46.648C149.786 47.1387 150.41 47.384 151.21 47.384C152 47.384 152.613 47.1387 153.05 46.648C153.498 46.1573 153.722 45.4107 153.722 44.408V37.704H155.546V44.408C155.546 45.9547 155.146 47.128 154.346 47.928C153.546 48.7173 152.49 49.112 151.178 49.112C149.877 49.112 148.832 48.7173 148.042 47.928C147.253 47.128 146.858 45.9547 146.858 44.408V37.704H148.682ZM163.401 40.04C164.425 40.04 165.246 40.3707 165.865 41.032C166.483 41.6933 166.793 42.6373 166.793 43.864V49H164.969V44.056C164.969 43.2667 164.766 42.6587 164.361 42.232C163.955 41.7947 163.401 41.576 162.697 41.576C161.971 41.576 161.39 41.8107 160.953 42.28C160.515 42.7387 160.297 43.416 160.297 44.312V49H158.473V40.184H160.297V42.12C160.531 41.4587 160.926 40.9467 161.481 40.584C162.035 40.2213 162.675 40.04 163.401 40.04ZM169.47 37.624C169.47 37.3147 169.577 37.0587 169.79 36.856C170.003 36.6533 170.286 36.552 170.638 36.552C170.99 36.552 171.273 36.6533 171.486 36.856C171.71 37.0587 171.822 37.3147 171.822 37.624C171.822 37.9333 171.71 38.184 171.486 38.376C171.273 38.568 170.99 38.664 170.638 38.664C170.286 38.664 170.003 38.568 169.79 38.376C169.577 38.184 169.47 37.9333 169.47 37.624ZM171.55 40.184V49H169.726V40.184H171.55ZM178.589 40.072C179.442 40.072 180.21 40.2533 180.893 40.616C181.576 40.9787 182.109 41.5013 182.493 42.184C182.877 42.8667 183.069 43.6667 183.069 44.584C183.069 45.512 182.877 46.3173 182.493 47C182.109 47.6827 181.576 48.2053 180.893 48.568C180.21 48.9307 179.442 49.112 178.589 49.112C177.736 49.112 176.968 48.9307 176.285 48.568C175.613 48.2053 175.08 47.6827 174.685 47C174.301 46.3067 174.109 45.5013 174.109 44.584C174.109 43.6667 174.301 42.8667 174.685 42.184C175.08 41.5013 175.613 40.9787 176.285 40.616C176.968 40.2533 177.736 40.072 178.589 40.072ZM178.589 41.656C178.12 41.656 177.688 41.7627 177.293 41.976C176.898 42.1893 176.578 42.52 176.333 42.968C176.098 43.4053 175.981 43.944 175.981 44.584C175.981 45.2347 176.098 45.7787 176.333 46.216C176.578 46.6533 176.898 46.9787 177.293 47.192C177.688 47.4053 178.12 47.512 178.589 47.512C179.058 47.512 179.49 47.4053 179.885 47.192C180.28 46.9787 180.594 46.6533 180.829 46.216C181.074 45.7787 181.197 45.2347 181.197 44.584C181.197 43.944 181.074 43.4053 180.829 42.968C180.594 42.52 180.28 42.1893 179.885 41.976C179.49 41.7627 179.058 41.656 178.589 41.656ZM190.551 40.04C191.575 40.04 192.396 40.3707 193.015 41.032C193.633 41.6933 193.943 42.6373 193.943 43.864V49H192.119V44.056C192.119 43.2667 191.916 42.6587 191.511 42.232C191.105 41.7947 190.551 41.576 189.847 41.576C189.121 41.576 188.54 41.8107 188.103 42.28C187.665 42.7387 187.447 43.416 187.447 44.312V49H185.623V40.184H187.447V42.12C187.681 41.4587 188.076 40.9467 188.631 40.584C189.185 40.2213 189.825 40.04 190.551 40.04Z" fill="#D2D2D2"/>
<g clip-path="url(#clip0_452_155)">
<path d="M30.5433 18.42C29.4156 18.8899 27.254 19.6417 24.3407 19.6417C21.4273 19.6417 19.2658 18.7959 18.138 18.42C17.1043 18.0441 15.3186 17.2922 12.8752 17.2922C10.7137 17.2922 9.02203 17.8561 7.98825 18.232V12.1233C9.20999 11.7474 10.8076 11.3715 12.8752 11.3715C15.7885 11.3715 17.9501 12.2173 19.0778 12.5932C20.1116 12.9692 21.8972 13.721 24.3407 13.721C26.7841 13.721 28.6637 12.9692 29.6035 12.5932C29.9794 12.4053 30.4493 12.2173 31.1072 12.0294V0H0V30.2614H31.1072V18.232C30.9192 18.326 30.6373 18.326 30.5433 18.42Z" fill="white"/>
<path d="M63.4361 18.42C62.3084 18.8899 60.1469 19.6417 57.2335 19.6417C54.3201 19.6417 52.1586 18.7959 51.0309 18.42C49.9971 18.0441 48.2115 17.2922 45.768 17.2922C43.6065 17.2922 41.9148 17.8561 40.8811 18.232V12.1233C42.1028 11.7474 43.7005 11.3715 45.768 11.3715C48.6814 11.3715 50.8429 12.2173 51.9706 12.5932C53.0044 12.9692 54.79 13.721 57.2335 13.721C59.677 13.721 61.5566 12.9692 62.4963 12.5932C62.8723 12.4053 63.3422 12.2173 64 12.0294V0H32.8928V30.2614H64V18.232C63.8121 18.326 63.6241 18.326 63.4361 18.42Z" fill="white"/>
<path d="M30.5433 50.5611C29.4156 51.031 27.254 51.8768 24.3407 51.8768C21.4273 51.8768 19.2658 51.031 18.138 50.5611C17.1043 50.1852 15.3186 49.4333 12.8752 49.4333C10.7137 49.4333 9.02203 49.9972 7.98825 50.3731V44.2645C9.20999 43.8885 10.8076 43.5126 12.8752 43.5126C15.7885 43.5126 17.9501 44.3584 19.0778 44.7344C20.1116 45.1103 21.8972 45.8621 24.3407 45.8621C26.7841 45.8621 28.6637 45.1103 29.6035 44.7344C29.9794 44.5464 30.4493 44.3584 31.1072 44.1705V32.1411H0V62.4965H31.1072V50.2791C30.9192 50.3731 30.6373 50.4671 30.5433 50.5611Z" fill="white"/>
<path d="M63.4361 50.5611C62.3084 51.031 60.1469 51.8768 57.2335 51.8768C54.3201 51.8768 52.1586 51.031 51.0309 50.5611C49.9971 50.1852 48.2115 49.4333 45.768 49.4333C43.6065 49.4333 41.9148 49.9972 40.8811 50.3731V44.2645C42.1028 43.8885 43.7005 43.5126 45.768 43.5126C48.6814 43.5126 50.8429 44.3584 51.9706 44.7344C53.0044 45.1103 54.79 45.8621 57.2335 45.8621C59.677 45.8621 61.5566 45.1103 62.4963 44.7344C62.8723 44.5464 63.3422 44.3584 64 44.1705V32.1411H32.8928V62.4965H64V50.2791L63.4361 50.5611Z" fill="white"/>
</g>
<defs>
<clipPath id="clip0_452_155">
<rect width="64" height="62.4963" fill="white"/>
</clipPath>
</defs>
</svg>
