<svg width="24" height="19" viewBox="0 0 24 19" fill="none" xmlns="http://www.w3.org/2000/svg">
<path fill-rule="evenodd" clip-rule="evenodd" d="M21.173 2.99537C22.1898 2.40357 22.9682 1.46489 23.3371 0.349814C22.3833 0.89786 21.3305 1.29581 20.2087 1.51154C19.3103 0.580139 18.0326 0 16.6153 0C13.8963 0 11.6917 2.14267 11.6917 4.78385C11.6917 5.15843 11.7352 5.52429 11.8192 5.87415C7.72801 5.67443 4.1002 3.76936 1.67216 0.874534C1.24773 1.58003 1.00628 2.40208 1.00628 3.27959C1.00628 4.93981 1.87612 6.4047 3.19589 7.26174C2.38902 7.23551 1.63016 7.01979 0.965805 6.66121V6.72097C0.965805 9.03855 2.66349 10.9728 4.91456 11.413C4.50212 11.5209 4.06722 11.5806 3.6173 11.5806C3.29938 11.5806 2.99193 11.55 2.69047 11.4917C3.31734 13.3939 5.13503 14.7771 7.28864 14.815C5.60444 16.0978 3.48083 16.8601 1.17428 16.8601C0.776864 16.8601 0.385412 16.8367 0 16.7945C2.1791 18.1544 4.76612 18.9474 7.5466 18.9474C16.6034 18.9474 21.554 11.6564 21.554 5.33338L21.5375 4.71391C22.5048 4.04336 23.3416 3.20088 24 2.24177C23.1167 2.62219 22.1689 2.88019 21.173 2.99537Z" fill="white"/>
</svg>
