<svg width="24" height="24" viewBox="0 0 24 24" fill="none" xmlns="http://www.w3.org/2000/svg">
<g clip-path="url(#clip0_437_90)">
<path d="M21.1429 0H2.85714C1.25714 0 0 1.25714 0 2.85714V21.1429C0 22.7429 1.25714 24 2.85714 24H21.1429C22.7429 24 24 22.7429 24 21.1429V2.85714C24 1.25714 22.7429 0 21.1429 0ZM7.42857 9.14286V20H4V9.14286H7.42857ZM4 6C4 5.2 4.68571 4.57143 5.71429 4.57143C6.74286 4.57143 7.37143 5.2 7.42857 6C7.42857 6.8 6.8 7.42857 5.71429 7.42857C4.68571 7.42857 4 6.8 4 6ZM20 20H16.5714C16.5714 20 16.5714 14.6857 16.5714 14.2857C16.5714 13.1429 16 12 14.5714 12H14.5143C13.1429 12 12.5714 13.1429 12.5714 14.2857C12.5714 14.8 12.5714 20 12.5714 20H9.14286V9.14286H12.5714V10.6286C12.5714 10.6286 13.6571 9.14286 15.8857 9.14286C18.1714 9.14286 20 10.6857 20 13.8857V20Z" fill="white"/>
</g>
<defs>
<clipPath id="clip0_437_90">
<rect width="24" height="24" fill="white"/>
</clipPath>
</defs>
</svg>
