<svg width="24" height="24" viewBox="0 0 24 24" fill="none" xmlns="http://www.w3.org/2000/svg">
<g clip-path="url(#clip0_437_92)">
<path d="M7.008 0C3.12 0 0 3.12 0 7.008V16.992C0 20.88 3.12 24 7.008 24H16.992C20.832 24 24 20.88 24 16.992V7.008C24 3.12 20.88 0 16.992 0H7.008ZM19.2 3.84C19.728 3.84 20.16 4.272 20.16 4.8C20.16 5.328 19.728 5.76 19.2 5.76C18.672 5.76 18.24 5.328 18.24 4.8C18.24 4.272 18.672 3.84 19.2 3.84ZM12 5.76C15.456 5.76 18.24 8.544 18.24 12C18.24 15.456 15.456 18.24 12 18.24C8.544 18.24 5.76 15.456 5.76 12C5.76 8.544 8.544 5.76 12 5.76ZM12 7.68C9.6 7.68 7.68 9.6 7.68 12C7.68 14.4 9.6 16.32 12 16.32C14.4 16.32 16.32 14.4 16.32 12C16.32 9.6 14.4 7.68 12 7.68Z" fill="white"/>
</g>
<defs>
<clipPath id="clip0_437_92">
<rect width="24" height="24" fill="white"/>
</clipPath>
</defs>
</svg>
